<svg version="1.1" id="Layer_1" xmlns="http://www.w3.org/2000/svg" xmlns:xlink="http://www.w3.org/1999/xlink" x="0px" y="0px"
	 width="100%" viewBox="0 0 225 225" enable-background="new 0 0 225 225" xml:space="preserve">
<path fill="#FEFDFD" opacity="1.000000" stroke="none" 
	d="
M132.000000,226.000000 
	C88.000000,226.000000 44.500004,226.000000 1.000006,226.000000 
	C1.000004,151.000000 1.000004,76.000015 1.000002,1.000016 
	C75.999992,1.000011 150.999985,1.000011 225.999969,1.000005 
	C225.999985,75.999985 225.999985,150.999969 226.000000,225.999969 
	C194.833328,226.000000 163.666672,226.000000 132.000000,226.000000 
M166.700378,173.648254 
	C166.108688,173.745712 165.516983,173.843170 164.944397,173.967804 
	C164.944397,173.967804 164.934982,173.930801 164.191940,173.950104 
	C162.781921,173.950104 161.371902,173.950104 159.328232,173.950104 
	C159.779800,178.030746 158.101349,182.180969 161.373825,185.843536 
	C162.185120,183.953674 162.294098,182.082077 162.159775,180.228073 
	C161.954498,177.394730 163.012222,175.811310 166.430237,176.091827 
	C166.597168,176.128601 166.764099,176.165375 167.130508,176.645782 
	C167.309479,176.925293 167.544098,177.145477 167.840805,178.167664 
	C167.840805,180.736252 167.840805,183.304825 167.840805,185.873413 
	C168.651184,185.843094 169.461563,185.812775 170.271942,185.782471 
	C170.644241,182.122025 172.192886,178.438965 168.742050,174.338043 
	C168.179214,174.202393 167.616394,174.066742 167.051376,173.970779 
	C167.051376,173.970779 167.073166,173.942474 166.700378,173.648254 
M41.408615,169.031998 
	C41.293571,169.364243 41.178524,169.696487 40.956879,170.946106 
	C41.064392,175.658905 41.171906,180.371719 41.425262,185.715820 
	C44.016834,185.596298 46.608406,185.476776 49.236462,185.314316 
	C49.236462,185.314316 49.213585,185.262848 49.957191,185.294144 
	C55.893093,183.564117 54.342953,178.674728 54.265579,174.607956 
	C54.192379,170.760345 51.508289,169.313629 47.200390,168.971237 
	C46.144348,169.015701 45.088310,169.060150 43.369991,168.925186 
	C42.916965,168.966904 42.463943,169.008621 41.408615,169.031998 
M131.251068,82.121376 
	C130.833313,81.748817 130.415573,81.376259 129.760666,80.566521 
	C129.337540,80.321381 128.914398,80.076233 128.246948,79.339928 
	C127.822174,79.015320 127.397392,78.690704 126.396530,77.962456 
	C124.582390,77.268600 122.768257,76.574745 120.323807,75.557541 
	C118.534622,75.149925 116.745445,74.742310 114.206421,74.199852 
	C113.450691,74.256065 112.694954,74.312271 111.293114,74.182922 
	C110.446983,74.408279 109.600845,74.633629 108.358498,74.803452 
	C108.358498,74.803452 108.000954,74.983002 107.364235,75.054985 
	C105.235809,75.719086 103.107376,76.383194 100.246689,76.788460 
	C97.818207,77.809212 95.389717,78.829971 92.282982,80.014267 
	C90.111847,81.631447 87.940712,83.248634 85.150978,85.092155 
	C81.117355,90.771568 77.083733,96.450974 72.596016,102.661392 
	C67.682838,113.942375 67.646614,125.234344 72.431816,136.584747 
	C70.986061,124.995331 71.943748,113.795822 77.639458,102.753242 
	C81.196106,98.533417 84.752747,94.313591 88.855263,89.744858 
	C90.632278,88.652962 92.409302,87.561073 94.885063,86.302528 
	C96.596138,85.547874 98.307213,84.793221 100.840202,84.024384 
	C103.550949,83.525345 106.261696,83.026306 109.719749,82.748627 
	C110.493645,82.705635 111.267540,82.662643 112.499352,82.811653 
	C112.499352,82.811653 112.976021,82.672569 113.708199,82.860458 
	C114.457840,82.810585 115.207481,82.760712 116.667763,82.984940 
	C117.422768,83.037140 118.177765,83.089340 119.538452,83.527702 
	C122.359207,84.352303 125.179962,85.176903 128.463531,86.507530 
	C131.332047,87.647217 134.200562,88.786903 137.057404,90.345512 
	C137.169037,90.578552 137.280670,90.811584 137.392303,91.044624 
	C137.446884,90.933807 137.577362,90.778633 137.542984,90.719818 
	C137.389633,90.457497 137.189178,90.222717 136.637650,89.393097 
	C134.913528,87.152214 133.189423,84.911331 131.410706,82.679131 
	C131.410706,82.679131 131.355865,82.686005 131.251068,82.121376 
M101.759010,96.082710 
	C104.776627,95.014717 107.794243,93.946724 110.811859,92.878731 
	C110.658722,92.327240 110.505585,91.775749 110.352448,91.224266 
	C107.233284,91.827988 104.114120,92.431709 100.264603,92.826820 
	C97.790825,94.047554 95.317055,95.268288 92.190666,96.769714 
	C86.700996,99.994720 83.691383,105.122108 80.978416,111.366089 
	C76.187531,124.554726 76.376564,137.411194 83.657288,150.444687 
	C88.058640,154.450562 92.459999,158.456451 97.332390,162.943192 
	C98.845940,163.459427 100.359497,163.975662 102.460854,164.871246 
	C104.302551,165.208557 106.144257,165.545853 108.731842,166.045395 
	C109.490898,166.022095 110.249947,165.998795 111.703796,166.202408 
	C115.207527,165.997086 118.711250,165.791763 122.989670,165.484406 
	C125.367409,164.774887 127.745140,164.065353 130.837708,163.251419 
	C132.557312,162.433014 134.276917,161.614609 136.644531,160.641098 
	C138.795517,158.836563 140.946518,157.032043 143.789352,155.094910 
	C145.945847,152.764267 148.102341,150.433624 150.812820,147.728394 
	C152.224655,144.856216 153.636490,141.984039 155.561295,138.655304 
	C155.733459,137.762314 155.905609,136.869308 156.263535,135.705139 
	C156.263535,135.705139 156.273361,135.376587 156.780930,134.816864 
	C160.367889,123.949181 160.585480,113.295097 154.856461,102.971664 
	C155.535843,113.170280 155.736969,123.264870 151.810577,133.656158 
	C150.185333,136.392776 148.560089,139.129395 146.372894,142.208954 
	C144.552353,144.080139 142.731796,145.951340 140.366501,148.154373 
	C139.248001,149.116486 138.129501,150.078583 136.341919,151.189575 
	C133.560654,152.788406 130.779404,154.387253 127.272110,156.019257 
	C126.147079,156.463303 125.022057,156.907333 123.455963,157.294022 
	C123.138565,157.372009 122.926140,157.565399 122.847694,157.812393 
	C122.847694,157.812393 122.799431,157.764130 122.056816,157.715515 
	C120.863480,158.004929 119.670135,158.294342 117.643890,158.551437 
	C114.463257,158.628525 111.282616,158.705612 107.842751,158.164795 
	C105.605400,157.680649 103.368042,157.196487 101.150406,156.369293 
	C101.148666,156.108704 101.027534,155.928329 100.381981,155.185547 
	C92.422455,151.606735 87.925247,145.053314 84.814491,136.347031 
	C82.679520,127.646378 83.390549,119.203514 87.588539,110.580795 
	C89.722084,107.719986 91.855629,104.859177 94.628059,101.758789 
	C96.745827,99.816185 98.863602,97.873589 101.759010,96.082710 
M102.307304,183.179977 
	C99.201012,184.416870 97.998756,183.003998 97.851730,180.024979 
	C97.746468,177.892166 97.563477,175.763184 97.349731,172.692291 
	C95.980957,173.917648 95.196426,174.278793 95.162811,174.699890 
	C94.286423,185.676971 95.717697,187.450104 106.100388,184.075073 
	C106.100388,180.689240 106.100388,177.303421 106.100388,173.917587 
	C105.449646,173.890701 104.798912,173.863815 104.148170,173.836929 
	C103.761261,176.882584 103.374352,179.928253 102.307304,183.179977 
M101.807533,128.767426 
	C104.873093,126.750389 107.938652,124.733337 111.580284,122.337257 
	C107.323517,122.069717 103.409920,120.320801 99.300797,124.093033 
	C98.191399,125.706329 97.082001,127.319618 95.309677,129.218475 
	C91.019279,133.156326 92.340553,137.840866 93.811081,142.363968 
	C94.268837,143.771973 95.816238,144.825684 96.864815,146.041595 
	C97.247719,144.349106 97.630623,142.656631 98.189247,140.237762 
	C98.078323,136.215179 98.646858,132.377518 101.807533,128.767426 
M121.517708,145.372437 
	C125.763359,148.799973 130.195953,149.312943 135.041489,146.499222 
	C130.956635,145.236435 127.122208,144.051056 123.170410,142.100815 
	C122.185722,138.142227 121.201042,134.183655 120.229149,130.276505 
	C115.673515,134.703964 115.925240,139.615143 121.517708,145.372437 
M121.585922,115.440384 
	C125.272423,116.577286 128.958923,117.714188 133.168777,119.012489 
	C131.540710,112.289513 126.625473,112.432785 121.208504,111.924690 
	C116.258507,111.839226 111.237076,111.219597 106.385277,111.868423 
	C103.470276,112.258240 100.819824,114.626312 97.391472,115.613853 
	C93.244980,113.906425 91.422585,117.370766 89.350494,119.594185 
	C88.239891,120.785896 88.188828,122.965057 87.659637,124.698616 
	C88.192848,124.932220 88.726051,125.165833 89.259254,125.399437 
	C92.171524,122.223633 95.083786,119.047829 98.530785,115.954201 
	C99.511749,115.621559 100.490059,115.010735 101.474113,115.001343 
	C107.979904,114.939255 114.486938,115.006371 121.585922,115.440384 
M127.857689,105.072121 
	C127.857689,105.072121 127.564545,105.143951 127.564545,105.143951 
	C127.564545,105.143951 127.788406,104.818779 127.278458,104.228889 
	C126.892319,102.544258 127.040390,100.304771 125.998291,99.301476 
	C124.319832,97.685493 121.379440,95.518127 119.834961,96.056931 
	C117.455521,96.887009 115.059654,99.532387 116.291031,103.122803 
	C114.774452,103.094978 113.236397,103.220627 111.745148,103.011871 
	C106.256302,102.243507 101.021164,102.163910 96.196831,108.131294 
	C98.586243,107.698624 99.743263,107.324989 100.905891,107.306679 
	C106.263969,107.222290 111.795662,106.409294 116.928581,107.476349 
	C121.080048,108.339363 123.508209,107.394440 126.895370,104.334366 
	C127.213051,104.469826 127.530739,104.605278 127.857689,105.072121 
M120.137733,185.747864 
	C121.725876,185.501602 123.651749,185.729141 124.821274,184.895569 
	C126.483772,183.710587 128.738342,181.690216 128.663116,180.126694 
	C128.552368,177.824280 127.112595,174.892715 125.274925,173.607910 
	C124.030853,172.738113 121.130684,174.237015 118.244698,174.928986 
	C114.676155,179.371445 115.382072,183.473099 120.137733,185.747864 
M76.171593,174.145233 
	C74.929977,174.090225 73.688362,174.035233 72.652634,173.989334 
	C72.652634,178.188568 72.652634,182.060089 72.652634,185.931610 
	C73.180298,185.962692 73.707970,185.993790 74.235634,186.024872 
	C74.478973,184.459442 74.576225,182.852905 75.002457,181.338959 
	C75.540199,179.428970 76.346359,177.594574 77.860542,175.892227 
	C79.134567,178.764816 80.408600,181.637405 82.272171,185.839249 
	C82.630348,183.589157 82.581223,182.036957 83.153023,180.763611 
	C83.915100,179.066544 85.160065,177.586304 86.197594,176.012924 
	C87.092873,177.540390 88.271057,178.976151 88.804344,180.620972 
	C89.344093,182.285721 89.245720,184.157364 89.426865,185.938370 
	C90.150047,185.935272 90.873222,185.932175 91.596405,185.929092 
	C91.596405,183.311050 92.005661,180.601974 91.450714,178.107391 
	C91.088371,176.478607 89.453171,174.061264 88.167870,173.913513 
	C84.534943,173.495941 80.788506,174.065964 76.171593,174.145233 
M160.813644,53.797352 
	C159.230484,53.136448 157.647339,52.475544 155.713318,51.209740 
	C153.475281,49.779984 151.237228,48.350227 148.460159,46.641052 
	C147.765701,46.019352 147.071259,45.397652 146.009201,44.177689 
	C143.784058,42.879116 141.558899,41.580544 138.970688,39.777107 
	C137.341797,38.793900 135.712906,37.810692 133.652313,36.303539 
	C131.136993,35.099056 128.621674,33.894573 126.107559,32.003830 
	C125.048500,31.336723 123.989433,30.669615 122.767372,29.331770 
	C120.581932,28.037243 118.396484,26.742718 115.739838,24.926945 
	C114.225418,24.820286 112.303513,24.061810 111.262566,24.712543 
	C104.403542,29.000399 97.734177,33.591667 90.302429,38.077324 
	C74.444290,48.178268 58.565716,58.247555 42.767975,68.442101 
	C41.544075,69.231911 40.199169,70.843140 40.087315,72.171661 
	C39.616421,77.764488 39.592438,83.394936 39.172016,89.919731 
	C39.066124,92.889183 38.970772,95.859062 38.852249,98.828011 
	C38.562416,106.088142 38.558105,106.087967 45.839596,104.287018 
	C45.839596,99.205612 45.839596,94.108078 45.972042,88.089966 
	C45.972042,83.886818 45.972042,79.683670 45.972042,74.812637 
	C49.402306,76.763138 52.207268,78.358086 55.443054,80.468948 
	C57.276817,81.356873 59.110580,82.244797 61.252094,83.732162 
	C63.117741,84.957695 64.983383,86.183228 67.353004,87.902077 
	C71.273445,91.117310 74.496597,90.192963 77.509323,86.440216 
	C79.121651,84.431847 81.138786,82.748459 83.596107,80.716049 
	C84.764687,79.498123 85.933258,78.280190 87.018059,77.023033 
	C87.018059,77.023033 87.062286,77.104286 87.792450,77.026917 
	C93.549019,74.416382 99.305580,71.805847 105.899445,69.225639 
	C109.263466,68.856842 112.627495,68.488045 116.753357,68.320122 
	C119.120705,68.702896 121.488052,69.085663 124.395248,69.864250 
	C125.920784,70.267426 127.446327,70.670601 129.394241,71.530952 
	C130.526672,72.048027 131.659088,72.565102 133.119339,73.705666 
	C135.714066,75.208786 138.308792,76.711906 141.189590,78.755302 
	C142.466797,79.728630 143.743988,80.701965 145.406998,82.211494 
	C146.836731,83.519684 148.266464,84.827866 149.958466,86.776047 
	C151.654327,87.573578 154.090546,89.530006 154.933090,88.991768 
	C164.820831,82.675232 174.469421,75.984344 184.761261,68.998405 
	C180.121857,66.129349 176.060898,63.618004 171.548508,60.619598 
	C170.045639,59.709595 168.542786,58.799587 166.636902,57.346565 
	C164.834290,56.329903 163.031693,55.313240 160.813644,53.797352 
M110.379486,144.875610 
	C108.519424,137.929611 111.080933,132.337479 117.049263,127.551140 
	C109.881638,126.650764 106.028725,129.862183 104.750595,136.541382 
	C103.164207,144.831467 106.548447,151.732574 113.324783,153.511917 
	C112.417343,150.797333 111.559906,148.232330 110.379486,144.875610 
M179.566025,184.155060 
	C180.492798,184.582123 181.419571,185.009201 182.346359,185.436279 
	C182.437149,185.277023 182.527939,185.117783 182.618744,184.958527 
	C180.644928,183.988525 178.671127,183.018509 176.697327,182.048508 
	C176.853287,181.696960 177.009262,181.345428 177.165222,180.993881 
	C179.764496,180.866302 182.363770,180.738739 185.530045,180.583328 
	C185.045502,178.801773 185.063629,176.603409 184.217819,176.195190 
	C181.936478,175.094177 179.005936,173.740356 176.845444,174.338303 
	C173.013306,175.398880 173.399399,179.245911 174.110229,182.359451 
	C174.649521,184.721664 176.189041,186.271362 179.566025,184.155060 
M58.987190,179.224426 
	C58.538319,180.785629 58.089447,182.346817 57.640575,183.908020 
	C61.041973,184.719940 64.443367,185.531845 67.961525,186.371643 
	C68.983818,175.964600 68.983818,175.964600 62.753365,174.033142 
	C63.618053,175.117004 64.666916,176.431702 66.173149,178.319717 
	C63.312984,178.606857 61.532043,178.785660 58.987190,179.224426 
M131.000519,180.466507 
	C131.157974,182.269012 131.315430,184.071518 131.472870,185.874008 
	C132.038696,185.871613 132.604507,185.869232 133.170319,185.866837 
	C133.337296,183.923798 133.166916,181.866669 133.773666,180.072342 
	C134.297379,178.523590 135.705246,177.273788 136.722229,175.891830 
	C137.698776,177.356216 139.008163,178.706100 139.561996,180.315918 
	C140.163864,182.065384 140.063309,184.056503 140.269028,185.942245 
	C140.999008,185.866104 141.728989,185.789963 142.458969,185.713821 
	C142.130127,182.302216 142.964172,177.890533 141.137787,175.766785 
	C139.392212,173.737000 134.878540,174.087738 131.000504,173.269501 
	C131.000504,176.004715 131.000504,177.796783 131.000519,180.466507 
M145.879669,183.255478 
	C147.009750,184.255585 148.139847,185.255707 149.176025,186.172714 
	C148.729004,179.932526 148.333405,174.410126 147.937805,168.887741 
	C147.245834,168.867310 146.553879,168.846863 145.861908,168.826431 
	C145.838745,173.371384 145.815582,177.916351 145.879669,183.255478 
M141.494461,129.243988 
	C141.183151,130.918716 140.871841,132.593445 140.445312,134.888031 
	C144.430466,136.256210 143.241531,131.165421 145.032303,130.037720 
	C142.906830,127.975044 141.040070,126.163445 139.173309,124.351845 
	C138.924469,124.484291 138.675613,124.616745 138.426773,124.749191 
	C139.238647,126.122383 140.050537,127.495567 141.494461,129.243988 
M154.514984,173.796051 
	C152.303314,177.220352 152.459183,183.262222 156.069168,187.091400 
	C155.798279,181.868744 155.596054,177.969971 154.514984,173.796051 
M145.355820,125.899460 
	C145.424591,126.319656 145.493362,126.739853 145.562119,127.160065 
	C145.899948,127.001472 146.237778,126.842880 146.575607,126.684280 
	C146.285400,126.291405 145.995209,125.898537 145.355820,125.899460 
M97.935074,148.340332 
	C98.038361,148.380463 98.141655,148.420578 98.244942,148.460678 
	C98.175011,148.489609 98.097260,148.553345 98.036888,148.539795 
	C97.931053,148.516022 97.835869,148.444809 97.935074,148.340332 
z"/>
<path fill="#FCBA38" opacity="1.000000" stroke="none" 
	d="
M91.002983,38.084015 
	C97.734177,33.591667 104.403542,29.000399 111.262566,24.712543 
	C112.303513,24.061810 114.225418,24.820286 115.837952,25.543022 
	C104.411003,38.040119 92.869514,49.905262 81.367096,61.808151 
	C74.527733,68.885628 67.749863,76.022530 60.944347,83.132713 
	C59.110580,82.244797 57.276817,81.356873 55.224701,79.815933 
	C55.708267,77.238052 55.904579,74.839531 57.193058,73.464172 
	C66.484894,63.545773 76.003700,53.840145 85.435982,44.053020 
	C87.323723,42.094261 89.148933,40.075245 91.002983,38.084015 
z"/>
<path fill="#FDC33E" opacity="1.000000" stroke="none" 
	d="
M90.652710,38.080669 
	C89.148933,40.075245 87.323723,42.094261 85.435982,44.053020 
	C76.003700,53.840145 66.484894,63.545773 57.193058,73.464172 
	C55.904579,74.839531 55.708267,77.238052 55.009293,79.557976 
	C52.207268,78.358086 49.402306,76.763138 45.972042,74.812637 
	C45.972042,79.683670 45.972042,83.886818 45.499939,88.546387 
	C43.153530,89.005745 41.279224,89.008682 39.404915,89.011620 
	C39.592438,83.394936 39.616421,77.764488 40.087315,72.171661 
	C40.199169,70.843140 41.544075,69.231911 42.767975,68.442101 
	C58.565716,58.247555 74.444290,48.178268 90.652710,38.080669 
z"/>
<path fill="#F8A835" opacity="1.000000" stroke="none" 
	d="
M122.930374,30.002510 
	C123.989433,30.669615 125.048500,31.336723 126.055084,32.714272 
	C124.923897,34.860950 123.995224,36.445869 122.742630,37.709785 
	C113.165749,47.373310 103.383705,56.838688 93.991478,66.676926 
	C91.154129,69.649017 89.343315,73.601097 87.062286,77.104286 
	C87.062286,77.104286 87.018059,77.023033 86.657440,77.024757 
	C83.168617,76.598488 82.836754,78.558472 82.973236,80.918411 
	C81.138786,82.748459 79.121651,84.431847 77.509323,86.440216 
	C74.496597,90.192963 71.273445,91.117310 67.162109,87.278915 
	C67.566772,85.686508 68.005600,84.564140 68.780945,83.770561 
	C85.575462,66.581085 102.394920,49.415874 119.264412,32.300041 
	C120.249435,31.300636 121.697693,30.757811 122.930374,30.002510 
z"/>
<path fill="#FAB035" opacity="1.000000" stroke="none" 
	d="
M122.848877,29.667141 
	C121.697693,30.757811 120.249435,31.300636 119.264412,32.300041 
	C102.394920,49.415874 85.575462,66.581085 68.780945,83.770561 
	C68.005600,84.564140 67.566772,85.686508 66.910126,87.032257 
	C64.983383,86.183228 63.117741,84.957695 61.098221,83.432434 
	C67.749863,76.022530 74.527733,68.885628 81.367096,61.808151 
	C92.869514,49.905262 104.411003,38.040119 116.073547,25.803646 
	C118.396484,26.742718 120.581932,28.037243 122.848877,29.667141 
z"/>
<path fill="#F7A134" opacity="1.000000" stroke="none" 
	d="
M87.427368,77.065598 
	C89.343315,73.601097 91.154129,69.649017 93.991478,66.676926 
	C103.383705,56.838688 113.165749,47.373310 122.742630,37.709785 
	C123.995224,36.445869 124.923897,34.860950 126.054474,33.057396 
	C128.621674,33.894573 131.136993,35.099056 133.684113,36.855553 
	C124.490402,46.774246 115.232208,56.109375 106.098335,65.564598 
	C105.326851,66.363220 105.387878,67.966072 105.062134,69.195305 
	C99.305580,71.805847 93.549019,74.416382 87.427368,77.065598 
z"/>
<path fill="#E55127" opacity="1.000000" stroke="none" 
	d="
M171.999939,61.106659 
	C176.060898,63.618004 180.121857,66.129349 184.761261,68.998405 
	C174.469421,75.984344 164.820831,82.675232 154.933090,88.991768 
	C154.090546,89.530006 151.654327,87.573578 150.134003,86.281616 
	C156.612335,79.555641 163.017746,73.422279 169.142044,67.020012 
	C170.581818,65.514893 171.072586,63.101959 171.999939,61.106659 
z"/>
<path fill="#F49631" opacity="1.000000" stroke="none" 
	d="
M105.480789,69.210472 
	C105.387878,67.966072 105.326851,66.363220 106.098335,65.564598 
	C115.232208,56.109375 124.490402,46.774246 133.899963,37.117523 
	C135.712906,37.810692 137.341797,38.793900 138.993835,40.393768 
	C132.284256,48.233967 125.486115,55.398521 118.873955,62.730778 
	C117.549736,64.199226 116.933952,66.306519 115.991516,68.119247 
	C112.627495,68.488045 109.263466,68.856842 105.480789,69.210472 
z"/>
<path fill="#E95F29" opacity="1.000000" stroke="none" 
	d="
M171.774231,60.863129 
	C171.072586,63.101959 170.581818,65.514893 169.142044,67.020012 
	C163.017746,73.422279 156.612335,79.555641 150.002869,85.961617 
	C148.266464,84.827866 146.836731,83.519684 145.262299,81.623840 
	C146.381790,79.553802 147.574966,78.003159 148.922440,76.600769 
	C154.937531,70.340584 160.996674,64.122719 167.039917,57.889580 
	C168.542786,58.799587 170.045639,59.709595 171.774231,60.863129 
z"/>
<path fill="#EF7B2E" opacity="1.000000" stroke="none" 
	d="
M148.999191,46.920464 
	C151.237228,48.350227 153.475281,49.779984 155.843903,51.869171 
	C151.206818,57.740711 146.667465,63.191940 141.570221,68.058861 
	C139.203186,70.318954 135.751511,71.443092 132.791519,73.082184 
	C131.659088,72.565102 130.526672,72.048027 129.222626,70.952881 
	C134.741516,64.375679 140.509872,58.447216 146.066147,52.326229 
	C147.404587,50.851784 148.040298,48.739452 148.999191,46.920464 
z"/>
<path fill="#F28E31" opacity="1.000000" stroke="none" 
	d="
M116.372437,68.219681 
	C116.933952,66.306519 117.549736,64.199226 118.873955,62.730778 
	C125.486115,55.398521 132.284256,48.233967 139.175354,40.646198 
	C141.558899,41.580544 143.784058,42.879116 145.862335,44.636169 
	C138.790207,51.974541 131.820663,58.811199 124.999008,65.792351 
	C124.200294,66.609734 124.216820,68.223732 123.855408,69.468430 
	C121.488052,69.085663 119.120705,68.702896 116.372437,68.219681 
z"/>
<path fill="#B01646" opacity="1.000000" stroke="none" 
	d="
M83.542175,149.802338 
	C76.376564,137.411194 76.187531,124.554726 81.558060,111.069069 
	C83.794281,110.859009 85.450867,110.945969 87.107445,111.032921 
	C83.390549,119.203514 82.679520,127.646378 84.831818,137.120056 
	C84.849152,141.509140 84.849152,145.125198 84.849152,149.192215 
	C85.103302,149.073563 84.322739,149.437943 83.542175,149.802338 
z"/>
<path fill="#EC6F2C" opacity="1.000000" stroke="none" 
	d="
M132.955429,73.393921 
	C135.751511,71.443092 139.203186,70.318954 141.570221,68.058861 
	C146.667465,63.191940 151.206818,57.740711 156.019318,52.171623 
	C157.647339,52.475544 159.230484,53.136448 160.960815,54.463333 
	C160.077698,56.913704 159.333115,58.963074 157.967056,60.436115 
	C152.382462,66.458153 146.608032,72.304176 140.903519,78.215019 
	C138.308792,76.711906 135.714066,75.208786 132.955429,73.393921 
z"/>
<path fill="#F0832E" opacity="1.000000" stroke="none" 
	d="
M124.125328,69.666336 
	C124.216820,68.223732 124.200294,66.609734 124.999008,65.792351 
	C131.820663,58.811199 138.790207,51.974541 146.046143,44.935295 
	C147.071259,45.397652 147.765701,46.019352 148.729675,46.780758 
	C148.040298,48.739452 147.404587,50.851784 146.066147,52.326229 
	C140.509872,58.447216 134.741516,64.375679 129.011429,70.724289 
	C127.446327,70.670601 125.920784,70.267426 124.125328,69.666336 
z"/>
<path fill="#E9682C" opacity="1.000000" stroke="none" 
	d="
M141.046555,78.485161 
	C146.608032,72.304176 152.382462,66.458153 157.967056,60.436115 
	C159.333115,58.963074 160.077698,56.913704 161.168549,54.712944 
	C163.031693,55.313240 164.834290,56.329903 166.838409,57.618073 
	C160.996674,64.122719 154.937531,70.340584 148.922440,76.600769 
	C147.574966,78.003159 146.381790,79.553802 145.069397,81.355743 
	C143.743988,80.701965 142.466797,79.728630 141.046555,78.485161 
z"/>
<path fill="#BA2948" opacity="1.000000" stroke="none" 
	d="
M83.599731,150.123505 
	C84.322739,149.437943 85.103302,149.073563 84.849152,149.192215 
	C84.849152,145.125198 84.849152,141.509140 84.891922,137.549286 
	C87.925247,145.053314 92.422455,151.606735 100.117188,155.552460 
	C95.165558,156.413589 97.734276,160.224609 96.861359,162.462326 
	C92.459999,158.456451 88.058640,154.450562 83.599731,150.123505 
z"/>
<path fill="#BB2341" opacity="1.000000" stroke="none" 
	d="
M110.540977,145.271469 
	C111.559906,148.232330 112.417343,150.797333 113.324783,153.511917 
	C106.548447,151.732574 103.164207,144.831467 104.750595,136.541382 
	C106.028725,129.862183 109.881638,126.650764 117.049263,127.551140 
	C111.080933,132.337479 108.519424,137.929611 110.540977,145.271469 
z"/>
<path fill="#FDC544" opacity="1.000000" stroke="none" 
	d="
M152.032272,133.003387 
	C155.736969,123.264870 155.535843,113.170280 154.856461,102.971664 
	C160.585480,113.295097 160.367889,123.949181 156.340942,134.760880 
	C154.611389,134.137726 153.321823,133.570557 152.032272,133.003387 
z"/>
<path fill="#AD133B" opacity="1.000000" stroke="none" 
	d="
M77.106606,103.174454 
	C71.943748,113.795822 70.986061,124.995331 72.431816,136.584747 
	C67.646614,125.234344 67.682838,113.942375 72.935883,102.642700 
	C74.552696,102.807495 75.829651,102.990974 77.106606,103.174454 
z"/>
<path fill="#FBB837" opacity="1.000000" stroke="none" 
	d="
M39.288467,89.465675 
	C41.279224,89.008682 43.153530,89.005745 45.433716,89.006668 
	C45.839596,94.108078 45.839596,99.205612 45.839596,104.287018 
	C38.558105,106.087967 38.562416,106.088142 38.852249,98.828011 
	C38.970772,95.859062 39.066124,92.889183 39.288467,89.465675 
z"/>
<path fill="#A22F58" opacity="1.000000" stroke="none" 
	d="
M179.215607,184.277222 
	C176.189041,186.271362 174.649521,184.721664 174.110229,182.359451 
	C173.399399,179.245911 173.013306,175.398880 176.845444,174.338303 
	C179.005936,173.740356 181.936478,175.094177 184.217819,176.195190 
	C185.063629,176.603409 185.045502,178.801773 185.530045,180.583328 
	C182.363770,180.738739 179.764496,180.866302 177.165222,180.993881 
	C177.009262,181.345428 176.853287,181.696960 176.697327,182.048508 
	C178.671127,183.018509 180.644928,183.988525 182.618744,184.958527 
	C182.527939,185.117783 182.437149,185.277023 182.346359,185.436279 
	C181.419571,185.009201 180.492798,184.582123 179.215607,184.277222 
z"/>
<path fill="#C32836" opacity="1.000000" stroke="none" 
	d="
M125.877464,104.527534 
	C123.508209,107.394440 121.080048,108.339363 116.928581,107.476349 
	C111.795662,106.409294 106.263969,107.222290 100.905891,107.306679 
	C99.743263,107.324989 98.586243,107.698624 96.196831,108.131294 
	C101.021164,102.163910 106.256302,102.243507 111.745148,103.011871 
	C113.236397,103.220627 114.774452,103.094978 116.964027,103.215210 
	C119.411324,103.427742 121.195038,103.473656 122.956261,103.696960 
	C123.949135,103.822845 124.904953,104.241028 125.877464,104.527534 
z"/>
<path fill="#9E1B4D" opacity="1.000000" stroke="none" 
	d="
M59.369148,179.094437 
	C61.532043,178.785660 63.312984,178.606857 66.173149,178.319717 
	C64.666916,176.431702 63.618053,175.117004 62.753365,174.033142 
	C68.983818,175.964600 68.983818,175.964600 67.961525,186.371643 
	C64.443367,185.531845 61.041973,184.719940 57.640572,183.908020 
	C58.089447,182.346817 58.538319,180.785629 59.369148,179.094437 
z"/>
<path fill="#A63860" opacity="1.000000" stroke="none" 
	d="
M77.086792,174.246887 
	C80.788506,174.065964 84.534943,173.495941 88.167870,173.913513 
	C89.453171,174.061264 91.088371,176.478607 91.450714,178.107391 
	C92.005661,180.601974 91.596405,183.311050 91.596405,185.929092 
	C90.873222,185.932175 90.150047,185.935272 89.426865,185.938370 
	C89.245720,184.157364 89.344093,182.285721 88.804344,180.620972 
	C88.271057,178.976151 87.092873,177.540390 86.197601,176.012924 
	C85.160065,177.586304 83.915100,179.066544 83.153023,180.763611 
	C82.581223,182.036957 82.630348,183.589157 82.272171,185.839249 
	C80.408600,181.637405 79.134567,178.764816 77.466202,175.563477 
	C77.089287,174.905624 77.094261,174.576340 77.086792,174.246887 
z"/>
<path fill="#F1E4E9" opacity="1.000000" stroke="none" 
	d="
M118.971230,174.676483 
	C121.130684,174.237015 124.030853,172.738113 125.274925,173.607910 
	C127.112595,174.892715 128.552368,177.824280 128.663116,180.126694 
	C128.738342,181.690216 126.483772,183.710587 124.821274,184.895569 
	C123.651749,185.729141 121.725876,185.501602 120.238396,185.147293 
	C119.883118,181.256653 119.427177,177.966568 118.971230,174.676483 
M125.055397,177.931625 
	C125.114166,179.121704 125.172928,180.311783 125.231689,181.501877 
	C125.492981,181.489166 125.754280,181.476456 126.015572,181.463760 
	C125.854637,180.090958 125.693710,178.718155 125.055397,177.931625 
z"/>
<path fill="#B92644" opacity="1.000000" stroke="none" 
	d="
M77.373032,102.963852 
	C75.829651,102.990974 74.552696,102.807495 73.162933,102.377197 
	C77.083733,96.450974 81.117355,90.771568 85.743011,85.178391 
	C86.993156,86.874344 87.651268,88.484047 88.309387,90.093758 
	C84.752747,94.313591 81.196106,98.533417 77.373032,102.963852 
z"/>
<path fill="#A22F58" opacity="1.000000" stroke="none" 
	d="
M131.000519,180.027679 
	C131.000504,177.796783 131.000504,176.004715 131.000504,173.269501 
	C134.878540,174.087738 139.392212,173.737000 141.137787,175.766785 
	C142.964172,177.890533 142.130127,182.302216 142.458969,185.713821 
	C141.728989,185.789963 140.999008,185.866104 140.269028,185.942245 
	C140.063309,184.056503 140.163864,182.065384 139.561996,180.315918 
	C139.008163,178.706100 137.698776,177.356216 136.722229,175.891830 
	C135.705246,177.273788 134.297379,178.523590 133.773666,180.072342 
	C133.166916,181.866669 133.337296,183.923798 133.170319,185.866837 
	C132.604507,185.869232 132.038696,185.871613 131.472870,185.874008 
	C131.315430,184.071518 131.157974,182.269012 131.000519,180.027679 
z"/>
<path fill="#B82346" opacity="1.000000" stroke="none" 
	d="
M87.347992,110.806854 
	C85.450867,110.945969 83.794281,110.859009 81.777710,110.793030 
	C83.691383,105.122108 86.700996,99.994720 92.536896,97.021912 
	C93.251801,98.848869 93.620491,100.423615 93.989174,101.998367 
	C91.855629,104.859177 89.722084,107.719986 87.347992,110.806854 
z"/>
<path fill="#FBB93C" opacity="1.000000" stroke="none" 
	d="
M151.921417,133.329773 
	C153.321823,133.570557 154.611389,134.137726 156.087158,135.040741 
	C156.273361,135.376587 156.263535,135.705139 155.887909,136.049774 
	C155.357651,137.300217 155.202988,138.206039 155.048325,139.111847 
	C153.636490,141.984039 152.224655,144.856216 150.156830,147.837265 
	C148.645508,145.919434 147.790176,143.892715 146.934845,141.866013 
	C148.560089,139.129395 150.185333,136.392776 151.921417,133.329773 
z"/>
<path fill="#D33634" opacity="1.000000" stroke="none" 
	d="
M126.386414,104.430954 
	C124.904953,104.241028 123.949135,103.822845 122.956261,103.696960 
	C121.195038,103.473656 119.411324,103.427742 117.333435,103.164261 
	C115.059654,99.532387 117.455521,96.887009 119.834961,96.056931 
	C121.379440,95.518127 124.319832,97.685493 125.998291,99.301476 
	C127.040390,100.304771 126.892319,102.544258 127.538841,104.499893 
	C127.799225,104.770889 127.848419,104.740738 127.848419,104.740738 
	C127.530739,104.605278 127.213051,104.469826 126.386414,104.430954 
z"/>
<path fill="#C21725" opacity="1.000000" stroke="none" 
	d="
M98.050484,116.105316 
	C100.819824,114.626312 103.470276,112.258240 106.385277,111.868423 
	C111.237076,111.219597 116.258507,111.839226 121.440201,112.318703 
	C121.445778,113.485603 121.219666,114.258499 120.993561,115.031403 
	C114.486938,115.006371 107.979904,114.939255 101.474113,115.001343 
	C100.490059,115.010735 99.511749,115.621559 98.256180,115.954346 
	C97.981583,115.954491 98.050484,116.105324 98.050484,116.105316 
z"/>
<path fill="#E88D3F" opacity="1.000000" stroke="none" 
	d="
M135.996521,160.796204 
	C134.276917,161.614609 132.557312,162.433014 130.447937,162.872253 
	C129.371475,160.324097 128.684814,158.155090 127.998154,155.986099 
	C130.779404,154.387253 133.560654,152.788406 136.720642,151.494080 
	C136.731766,154.797775 136.364151,157.796997 135.996521,160.796204 
z"/>
<path fill="#D56644" opacity="1.000000" stroke="none" 
	d="
M118.476799,158.583740 
	C119.670135,158.294342 120.863480,158.004929 122.349960,158.160080 
	C122.500404,160.931915 122.357697,163.259171 122.214981,165.586456 
	C118.711250,165.791763 115.207527,165.997086 111.403168,165.700211 
	C111.656456,163.525528 112.210381,161.853043 112.471359,161.065079 
	C114.955719,160.038589 116.716263,159.311172 118.476799,158.583740 
z"/>
<path fill="#EFA243" opacity="1.000000" stroke="none" 
	d="
M128.491272,79.831085 
	C128.914398,80.076233 129.337540,80.321381 129.906891,81.097809 
	C130.487350,81.981407 130.921616,82.333702 131.355865,82.686005 
	C131.355865,82.686005 131.410706,82.679131 131.270187,83.015839 
	C130.086685,84.235527 129.043701,85.118515 128.000717,86.001503 
	C125.179962,85.176903 122.359207,84.352303 119.422279,83.040504 
	C119.855446,80.329170 120.404778,78.105026 120.954117,75.880890 
	C122.768257,76.574745 124.582390,77.268600 126.748688,78.450485 
	C127.564316,79.236046 128.027786,79.533569 128.491272,79.831085 
z"/>
<path fill="#D46442" opacity="1.000000" stroke="none" 
	d="
M100.978951,77.047302 
	C103.107376,76.383194 105.235809,75.719086 107.682396,75.418465 
	C108.324516,78.030380 108.648483,80.278824 108.972443,82.527260 
	C106.261696,83.026306 103.550949,83.525345 100.285362,83.689491 
	C100.146667,81.252167 100.562813,79.149734 100.978951,77.047302 
z"/>
<path fill="#9D214C" opacity="1.000000" stroke="none" 
	d="
M145.836044,182.858398 
	C145.815582,177.916351 145.838745,173.371384 145.861908,168.826431 
	C146.553879,168.846863 147.245834,168.867310 147.937805,168.887741 
	C148.333405,174.410126 148.729004,179.932526 149.176025,186.172714 
	C148.139847,185.255707 147.009750,184.255585 145.836044,182.858398 
z"/>
<path fill="#DD783D" opacity="1.000000" stroke="none" 
	d="
M109.346100,82.637939 
	C108.648483,80.278824 108.324516,78.030380 108.000755,75.382477 
	C108.000954,74.983002 108.358498,74.803452 108.892166,74.891861 
	C110.263634,74.776344 111.101433,74.572411 111.939224,74.368484 
	C112.694954,74.312271 113.450691,74.256065 114.657593,74.635590 
	C115.391556,77.617836 115.674339,80.164330 115.957123,82.710831 
	C115.207481,82.760712 114.457840,82.810585 113.256882,82.638489 
	C112.493927,82.238228 112.239220,82.305931 112.041435,82.619644 
	C111.267540,82.662643 110.493645,82.705635 109.346100,82.637939 
z"/>
<path fill="#F2AA44" opacity="1.000000" stroke="none" 
	d="
M146.653870,142.037476 
	C147.790176,143.892715 148.645508,145.919434 149.879837,148.024567 
	C148.102341,150.433624 145.945847,152.764267 143.417206,154.736053 
	C142.333786,152.192291 141.622528,150.007401 140.911255,147.822525 
	C142.731796,145.951340 144.552353,144.080139 146.653870,142.037476 
z"/>
<path fill="#DF7A3F" opacity="1.000000" stroke="none" 
	d="
M122.602325,165.535431 
	C122.357697,163.259171 122.500404,160.931915 122.721268,158.184387 
	C122.799431,157.764130 122.847694,157.812393 123.040794,157.818848 
	C123.509979,157.744308 123.731026,157.586319 123.897026,157.351379 
	C125.022057,156.907333 126.147079,156.463303 127.635132,156.002686 
	C128.684814,158.155090 129.371475,160.324097 130.090515,162.924469 
	C127.745140,164.065353 125.367409,164.774887 122.602325,165.535431 
z"/>
<path fill="#AF1344" opacity="1.000000" stroke="none" 
	d="
M98.013527,140.964142 
	C97.630623,142.656631 97.247719,144.349106 96.864815,146.041595 
	C95.816238,144.825684 94.268837,143.771973 93.811081,142.363968 
	C92.340553,137.840866 91.019279,133.156326 95.644470,129.528687 
	C95.979271,134.088623 95.979271,138.338379 95.979271,142.588120 
	C96.451408,142.606247 96.923538,142.624374 97.395676,142.642502 
	C97.601624,142.083054 97.807571,141.523590 98.013527,140.964142 
z"/>
<path fill="#B82346" opacity="1.000000" stroke="none" 
	d="
M121.060684,144.796143 
	C115.925240,139.615143 115.673515,134.703964 120.229149,130.276505 
	C121.201042,134.183655 122.185722,138.142227 122.900055,142.538666 
	C122.106697,143.583054 121.583694,144.189606 121.060684,144.796143 
z"/>
<path fill="#B71F42" opacity="1.000000" stroke="none" 
	d="
M98.101387,140.600952 
	C97.807571,141.523590 97.601624,142.083054 97.395676,142.642502 
	C96.923538,142.624374 96.451408,142.606247 95.979271,142.588120 
	C95.979271,138.338379 95.979271,134.088623 95.975937,129.385895 
	C97.082001,127.319618 98.191399,125.706329 99.759308,124.299568 
	C100.553253,126.032913 100.888672,127.559723 101.224098,129.086533 
	C98.646858,132.377518 98.078323,136.215179 98.101387,140.600952 
z"/>
<path fill="#A74365" opacity="1.000000" stroke="none" 
	d="
M105.910942,184.979492 
	C95.717697,187.450104 94.286423,185.676971 95.162811,174.699890 
	C95.196426,174.278793 95.980957,173.917648 97.349731,172.692291 
	C97.563477,175.763184 97.746468,177.892166 97.851730,180.024979 
	C97.998756,183.003998 99.201012,184.416870 102.780327,183.365189 
	C104.139214,184.026764 105.025078,184.503128 105.910942,184.979492 
z"/>
<path fill="#D53F3D" opacity="1.000000" stroke="none" 
	d="
M121.289734,115.235886 
	C121.219666,114.258499 121.445778,113.485603 121.810646,112.440094 
	C126.625473,112.432785 131.540710,112.289513 133.168777,119.012489 
	C128.958923,117.714188 125.272423,116.577286 121.289734,115.235886 
z"/>
<path fill="#ED9D40" opacity="1.000000" stroke="none" 
	d="
M140.638885,147.988449 
	C141.622528,150.007401 142.333786,152.192291 143.071289,154.802353 
	C140.946518,157.032043 138.795517,158.836563 136.320526,160.718658 
	C136.364151,157.796997 136.731766,154.797775 137.055191,151.419632 
	C138.129501,150.078583 139.248001,149.116486 140.638885,147.988449 
z"/>
<path fill="#C84644" opacity="1.000000" stroke="none" 
	d="
M107.985954,165.883148 
	C106.144257,165.545853 104.302551,165.208557 102.172379,164.242828 
	C101.632835,161.313736 101.381767,159.013031 101.130692,156.712341 
	C103.368042,157.196487 105.605400,157.680649 107.822647,158.825134 
	C107.863686,161.618027 107.924820,163.750595 107.985954,165.883148 
z"/>
<path fill="#B12144" opacity="1.000000" stroke="none" 
	d="
M97.720978,115.859589 
	C98.050484,116.105324 97.981583,115.954491 97.988815,115.913254 
	C95.083786,119.047829 92.171524,122.223633 89.259254,125.399437 
	C88.726051,125.165833 88.192848,124.932220 87.659637,124.698616 
	C88.188828,122.965057 88.239891,120.785896 89.350494,119.594185 
	C91.422585,117.370766 93.244980,113.906425 97.720978,115.859589 
z"/>
<path fill="#C33C42" opacity="1.000000" stroke="none" 
	d="
M88.582321,89.919312 
	C87.651268,88.484047 86.993156,86.874344 86.052307,85.065231 
	C87.940712,83.248634 90.111847,81.631447 92.636612,80.355423 
	C93.388939,82.620781 93.787628,84.544975 94.186325,86.469177 
	C92.409302,87.561073 90.632278,88.652962 88.582321,89.919312 
z"/>
<path fill="#9E1B4D" opacity="1.000000" stroke="none" 
	d="
M47.983326,169.106400 
	C51.508289,169.313629 54.192379,170.760345 54.265579,174.607956 
	C54.342953,178.674728 55.893093,183.564117 49.502510,184.851913 
	C48.999264,184.124115 48.950703,183.838531 49.156315,183.311066 
	C53.464622,179.365402 52.785831,173.568268 47.969910,170.495285 
	C47.973831,169.847061 47.978580,169.476730 47.983326,169.106400 
z"/>
<path fill="#C32134" opacity="1.000000" stroke="none" 
	d="
M121.289200,145.084290 
	C121.583694,144.189606 122.106697,143.583054 122.958740,142.921082 
	C127.122208,144.051056 130.956635,145.236435 135.041489,146.499222 
	C130.195953,149.312943 125.763359,148.799973 121.289200,145.084290 
z"/>
<path fill="#CC4F43" opacity="1.000000" stroke="none" 
	d="
M94.535690,86.385849 
	C93.787628,84.544975 93.388939,82.620781 92.975739,80.273651 
	C95.389717,78.829971 97.818207,77.809212 100.612823,76.917877 
	C100.562813,79.149734 100.146667,81.252167 99.874405,83.696579 
	C98.307213,84.793221 96.596138,85.547874 94.535690,86.385849 
z"/>
<path fill="#A93A67" opacity="1.000000" stroke="none" 
	d="
M165.992752,175.824203 
	C163.012222,175.811310 161.954498,177.394730 162.159775,180.228073 
	C162.294098,182.082077 162.185120,183.953674 161.373825,185.843536 
	C158.101349,182.180969 159.779800,178.030746 159.328232,173.950104 
	C161.371902,173.950104 162.781921,173.950104 164.654694,174.198639 
	C165.409210,174.906189 165.700974,175.365189 165.992752,175.824203 
z"/>
<path fill="#E59150" opacity="1.000000" stroke="none" 
	d="
M116.312439,82.847885 
	C115.674339,80.164330 115.391556,77.617836 115.032516,74.703018 
	C116.745445,74.742310 118.534622,75.149925 120.638962,75.719215 
	C120.404778,78.105026 119.855446,80.329170 119.119438,82.847427 
	C118.177765,83.089340 117.422768,83.037140 116.312439,82.847885 
z"/>
<path fill="#BE2B3E" opacity="1.000000" stroke="none" 
	d="
M94.308617,101.878578 
	C93.620491,100.423615 93.251801,98.848869 92.863205,96.881569 
	C95.317055,95.268288 97.790825,94.047554 100.649391,93.292770 
	C101.016586,94.482811 100.998985,95.206902 100.981384,95.931000 
	C98.863602,97.873589 96.745827,99.816185 94.308617,101.878578 
z"/>
<path fill="#BE2B3E" opacity="1.000000" stroke="none" 
	d="
M101.515816,128.926971 
	C100.888672,127.559723 100.553253,126.032913 100.084213,124.200058 
	C103.409920,120.320801 107.323517,122.069717 111.580284,122.337257 
	C107.938652,124.733337 104.873093,126.750389 101.515816,128.926971 
z"/>
<path fill="#AC526F" opacity="1.000000" stroke="none" 
	d="
M76.629196,174.196060 
	C77.094261,174.576340 77.089287,174.905624 77.054291,175.481140 
	C76.346359,177.594574 75.540199,179.428970 75.002457,181.338959 
	C74.576225,182.852905 74.478973,184.459442 74.235634,186.024872 
	C73.707970,185.993790 73.180298,185.962692 72.652634,185.931610 
	C72.652634,182.060089 72.652634,178.188568 72.652634,173.989334 
	C73.688362,174.035233 74.929977,174.090225 76.629196,174.196060 
z"/>
<path fill="#CC4D39" opacity="1.000000" stroke="none" 
	d="
M108.358902,165.964264 
	C107.924820,163.750595 107.863686,161.618027 107.952271,159.134094 
	C111.282616,158.705612 114.463257,158.628525 118.060349,158.567596 
	C116.716263,159.311172 114.955719,160.038589 112.471359,161.065079 
	C112.210381,161.853043 111.656456,163.525528 111.055771,165.586761 
	C110.249947,165.998795 109.490898,166.022095 108.358902,165.964264 
z"/>
<path fill="#E59150" opacity="1.000000" stroke="none" 
	d="
M141.178436,129.056366 
	C140.050537,127.495567 139.238647,126.122383 138.426773,124.749191 
	C138.675613,124.616745 138.924469,124.484291 139.173309,124.351845 
	C141.040070,126.163445 142.906830,127.975044 145.032303,130.037720 
	C143.241531,131.165421 144.430466,136.256210 140.445312,134.888031 
	C140.871841,132.593445 141.183151,130.918716 141.178436,129.056366 
z"/>
<path fill="#A74365" opacity="1.000000" stroke="none" 
	d="
M154.954407,173.933624 
	C155.596054,177.969971 155.798279,181.868744 156.069168,187.091400 
	C152.459183,183.262222 152.303314,177.220352 154.954407,173.933624 
z"/>
<path fill="#A3295D" opacity="1.000000" stroke="none" 
	d="
M118.607964,174.802734 
	C119.427177,177.966568 119.883118,181.256653 120.165245,184.812469 
	C115.382072,183.473099 114.676155,179.371445 118.607964,174.802734 
z"/>
<path fill="#F8B94E" opacity="1.000000" stroke="none" 
	d="
M128.232117,86.254517 
	C129.043701,85.118515 130.086685,84.235527 131.297485,83.011490 
	C133.189423,84.911331 134.913528,87.152214 136.839233,89.675797 
	C137.040833,89.958488 137.069077,89.926590 137.069077,89.926590 
	C134.200562,88.786903 131.332047,87.647217 128.232117,86.254517 
z"/>
<path fill="#C13741" opacity="1.000000" stroke="none" 
	d="
M101.140549,156.540817 
	C101.381767,159.013031 101.632835,161.313736 101.878479,164.053162 
	C100.359497,163.975662 98.845940,163.459427 97.096878,162.702759 
	C97.734276,160.224609 95.165558,156.413589 100.319702,155.873764 
	C101.027534,155.928329 101.148666,156.108704 101.140549,156.540817 
z"/>
<path fill="#960034" opacity="1.000000" stroke="none" 
	d="
M48.902145,183.552979 
	C48.950703,183.838531 48.999264,184.124115 49.130707,184.836273 
	C49.213585,185.262848 49.236462,185.314316 48.742653,185.198914 
	C45.925701,185.083862 43.602562,185.084183 41.279419,185.084518 
	C41.171906,180.371719 41.064392,175.658905 41.243538,170.486984 
	C41.530197,170.027863 41.994980,169.975861 42.150650,170.238373 
	C42.650883,170.707214 42.995445,170.913544 43.282539,171.572220 
	C43.225071,175.799225 43.225071,179.573853 43.225071,183.844040 
	C45.403839,183.732330 47.152992,183.642654 48.902145,183.552979 
z"/>
<path fill="#99123B" opacity="1.000000" stroke="none" 
	d="
M106.005661,184.527283 
	C105.025078,184.503128 104.139214,184.026764 103.120392,183.262161 
	C103.374352,179.928253 103.761261,176.882584 104.148170,173.836929 
	C104.798912,173.863815 105.449646,173.890701 106.100388,173.917587 
	C106.100388,177.303421 106.100388,180.689240 106.005661,184.527283 
z"/>
<path fill="#A3295D" opacity="1.000000" stroke="none" 
	d="
M169.053619,174.846008 
	C172.192886,178.438965 170.644241,182.122025 170.271942,185.782471 
	C169.461563,185.812775 168.651184,185.843094 167.840805,185.873413 
	C167.840805,183.304825 167.840805,180.736252 167.966187,177.417664 
	C168.412247,176.060455 168.732941,175.453232 169.053619,174.846008 
z"/>
<path fill="#CC524E" opacity="1.000000" stroke="none" 
	d="
M101.370193,96.006851 
	C100.998985,95.206902 101.016586,94.482811 101.014572,93.397079 
	C104.114120,92.431709 107.233284,91.827988 110.352448,91.224266 
	C110.505585,91.775749 110.658722,92.327240 110.811859,92.878731 
	C107.794243,93.946724 104.776627,95.014717 101.370193,96.006851 
z"/>
<path fill="#F7A134" opacity="1.000000" stroke="none" 
	d="
M83.284668,80.817230 
	C82.836754,78.558472 83.168617,76.598488 86.699326,77.044373 
	C85.933258,78.280190 84.764687,79.498123 83.284668,80.817230 
z"/>
<path fill="#A8456B" opacity="1.000000" stroke="none" 
	d="
M41.352341,185.400177 
	C43.602562,185.084183 45.925701,185.083862 48.724411,185.220398 
	C46.608406,185.476776 44.016834,185.596298 41.352341,185.400177 
z"/>
<path fill="#E59150" opacity="1.000000" stroke="none" 
	d="
M145.530411,125.702560 
	C145.995209,125.898537 146.285400,126.291405 146.575607,126.684280 
	C146.237778,126.842880 145.899948,127.001472 145.562134,127.160065 
	C145.493362,126.739853 145.424591,126.319656 145.530411,125.702560 
z"/>
<path fill="#960034" opacity="1.000000" stroke="none" 
	d="
M47.591858,169.038818 
	C47.978580,169.476730 47.973831,169.847061 47.645210,170.555191 
	C46.892006,170.819366 46.462677,170.745758 45.860863,170.475449 
	C45.136337,169.887360 44.584305,169.495987 44.032269,169.104599 
	C45.088310,169.060150 46.144348,169.015701 47.591858,169.038818 
z"/>
<path fill="#9E1B4D" opacity="1.000000" stroke="none" 
	d="
M43.701130,169.014893 
	C44.584305,169.495987 45.136337,169.887360 45.535728,170.585281 
	C44.702057,170.967834 44.021030,171.043839 43.340008,171.119858 
	C42.995445,170.913544 42.650883,170.707214 42.142456,170.007172 
	C41.978596,169.513443 42.010918,169.050354 42.010918,169.050354 
	C42.463943,169.008621 42.916965,168.966904 43.701130,169.014893 
z"/>
<path fill="#A93A67" opacity="1.000000" stroke="none" 
	d="
M168.897842,174.592026 
	C168.732941,175.453232 168.412247,176.060455 167.962982,176.987000 
	C167.544098,177.145477 167.309479,176.925293 167.068695,176.046646 
	C167.022446,174.942032 167.038010,174.436569 167.053558,173.931091 
	C167.616394,174.066742 168.179214,174.202393 168.897842,174.592026 
z"/>
<path fill="#FDC544" opacity="1.000000" stroke="none" 
	d="
M155.304810,138.883575 
	C155.202988,138.206039 155.357651,137.300217 155.795029,136.185364 
	C155.905609,136.869308 155.733459,137.762314 155.304810,138.883575 
z"/>
<path fill="#E59150" opacity="1.000000" stroke="none" 
	d="
M111.616165,74.275703 
	C111.101433,74.572411 110.263634,74.776344 109.090279,74.919632 
	C109.600845,74.633629 110.446983,74.408279 111.616165,74.275703 
z"/>
<path fill="#A3295D" opacity="1.000000" stroke="none" 
	d="
M167.052460,173.950928 
	C167.038010,174.436569 167.022446,174.942032 166.968964,175.824829 
	C166.764099,176.165375 166.597168,176.128601 166.211487,175.958008 
	C165.700974,175.365189 165.409210,174.906189 165.026215,174.188995 
	C164.934982,173.930801 164.944397,173.967804 165.292404,173.986115 
	C166.117996,173.983780 166.595581,173.963135 167.073166,173.942474 
	C167.073166,173.942474 167.051376,173.970779 167.052460,173.950928 
z"/>
<path fill="#F8B94E" opacity="1.000000" stroke="none" 
	d="
M131.303467,82.403687 
	C130.921616,82.333702 130.487350,81.981407 130.025452,81.316406 
	C130.415573,81.376259 130.833313,81.748817 131.303467,82.403687 
z"/>
<path fill="#F8B94E" opacity="1.000000" stroke="none" 
	d="
M137.023285,89.968231 
	C137.189178,90.222717 137.389633,90.457497 137.542984,90.719818 
	C137.577362,90.778633 137.446884,90.933807 137.392303,91.044624 
	C137.280670,90.811584 137.169037,90.578552 137.063232,90.136047 
	C137.069077,89.926590 137.040833,89.958488 137.023285,89.968231 
z"/>
<path fill="#AF1344" opacity="1.000000" stroke="none" 
	d="
M97.835648,148.366913 
	C97.835869,148.444809 97.931053,148.516022 98.036888,148.539795 
	C98.097260,148.553345 98.175011,148.489609 98.244949,148.460693 
	C98.141655,148.420578 98.038361,148.380463 97.835648,148.366913 
z"/>
<path fill="#A93A67" opacity="1.000000" stroke="none" 
	d="
M166.886780,173.795364 
	C166.595581,173.963135 166.117996,173.983780 165.282852,173.972534 
	C165.516983,173.843170 166.108688,173.745712 166.886780,173.795364 
z"/>
<path fill="#F8B94E" opacity="1.000000" stroke="none" 
	d="
M128.369110,79.585510 
	C128.027786,79.533569 127.564316,79.236046 127.036728,78.652313 
	C127.397392,78.690704 127.822174,79.015320 128.369110,79.585510 
z"/>
<path fill="#A8456B" opacity="1.000000" stroke="none" 
	d="
M41.709766,169.041168 
	C42.010918,169.050354 41.978596,169.513443 41.986786,169.744659 
	C41.994980,169.975861 41.530197,170.027863 41.296837,170.028290 
	C41.178524,169.696487 41.293571,169.364243 41.709766,169.041168 
z"/>
<path fill="#C32836" opacity="1.000000" stroke="none" 
	d="
M127.853058,104.906433 
	C127.848419,104.740738 127.799225,104.770889 127.793816,104.794830 
	C127.788406,104.818779 127.564545,105.143951 127.564545,105.143951 
	C127.564545,105.143951 127.857689,105.072121 127.853058,104.906433 
z"/>
<path fill="#E59150" opacity="1.000000" stroke="none" 
	d="
M112.270393,82.715652 
	C112.239220,82.305931 112.493927,82.238228 112.890793,82.544540 
	C112.976021,82.672569 112.499352,82.811653 112.270393,82.715652 
z"/>
<path fill="#D56644" opacity="1.000000" stroke="none" 
	d="
M123.676498,157.322693 
	C123.731026,157.586319 123.509979,157.744308 123.026291,157.849762 
	C122.926140,157.565399 123.138565,157.372009 123.676498,157.322693 
z"/>
<path fill="#A93A67" opacity="1.000000" stroke="none" 
	d="
M125.294083,177.638489 
	C125.693710,178.718155 125.854637,180.090958 126.015572,181.463760 
	C125.754280,181.476456 125.492981,181.489166 125.231689,181.501877 
	C125.172928,180.311783 125.114166,179.121704 125.294083,177.638489 
z"/>
<path fill="#F1E4E9" opacity="1.000000" stroke="none" 
	d="
M43.282539,171.572220 
	C44.021030,171.043839 44.702057,170.967834 45.708214,170.781982 
	C46.462677,170.745758 46.892006,170.819366 47.646034,170.833084 
	C52.785831,173.568268 53.464622,179.365402 49.156315,183.311081 
	C47.152992,183.642654 45.403839,183.732330 43.225071,183.844040 
	C43.225071,179.573853 43.225071,175.799225 43.282539,171.572220 
z"/>
</svg>